<mxfile host="app.diagrams.net" agent="Mozilla/5.0 (Windows NT 10.0; Win64; x64) AppleWebKit/537.36 (KHTML, like Gecko) Chrome/137.0.0.0 Safari/537.36" version="27.1.6">
  <diagram name="Gcash Use Case Diagram" id="9jzhFvEhGv-t-wS3Q8fd">
    <mxGraphModel dx="1106" dy="605" grid="1" gridSize="10" guides="1" tooltips="1" connect="1" arrows="1" fold="1" page="1" pageScale="1" pageWidth="850" pageHeight="1100" math="0" shadow="0">
      <root>
        <mxCell id="0" />
        <mxCell id="1" parent="0" />
        <mxCell id="osUr1x6TVg4C8QHSbOdu-1" value="Customer" style="shape=rectangle;whiteSpace=wrap;html=1;" parent="1" vertex="1">
          <mxGeometry x="30" y="110" width="100" height="40" as="geometry" />
        </mxCell>
        <mxCell id="osUr1x6TVg4C8QHSbOdu-2" value="Gcash Software Engineers" style="shape=rectangle;whiteSpace=wrap;html=1;" parent="1" vertex="1">
          <mxGeometry x="620" y="110" width="160" height="40" as="geometry" />
        </mxCell>
        <mxCell id="osUr1x6TVg4C8QHSbOdu-3" value="Authenticate User" style="ellipse;whiteSpace=wrap;html=1;" parent="1" vertex="1">
          <mxGeometry x="190" y="110" width="140" height="40" as="geometry" />
        </mxCell>
        <mxCell id="osUr1x6TVg4C8QHSbOdu-4" value="Gcash Transaction" style="ellipse;whiteSpace=wrap;html=1;" parent="1" vertex="1">
          <mxGeometry x="180" y="190" width="140" height="40" as="geometry" />
        </mxCell>
        <mxCell id="osUr1x6TVg4C8QHSbOdu-5" value="Check Balances" style="ellipse;whiteSpace=wrap;html=1;" parent="1" vertex="1">
          <mxGeometry x="20" y="250" width="120" height="40" as="geometry" />
        </mxCell>
        <mxCell id="osUr1x6TVg4C8QHSbOdu-6" value="Deposit Funds" style="ellipse;whiteSpace=wrap;html=1;" parent="1" vertex="1">
          <mxGeometry x="160" y="310" width="120" height="40" as="geometry" />
        </mxCell>
        <mxCell id="osUr1x6TVg4C8QHSbOdu-7" value="Withdraw Cash" style="ellipse;whiteSpace=wrap;html=1;" parent="1" vertex="1">
          <mxGeometry x="290" y="270" width="120" height="40" as="geometry" />
        </mxCell>
        <mxCell id="osUr1x6TVg4C8QHSbOdu-8" value="Transfer Funds" style="ellipse;whiteSpace=wrap;html=1;" parent="1" vertex="1">
          <mxGeometry x="360" y="200" width="120" height="40" as="geometry" />
        </mxCell>
        <mxCell id="osUr1x6TVg4C8QHSbOdu-9" value="App Transaction" style="ellipse;whiteSpace=wrap;html=1;" parent="1" vertex="1">
          <mxGeometry x="410" y="110" width="140" height="40" as="geometry" />
        </mxCell>
        <mxCell id="osUr1x6TVg4C8QHSbOdu-10" value="App Help" style="ellipse;whiteSpace=wrap;html=1;" parent="1" vertex="1">
          <mxGeometry x="490" y="220" width="100" height="40" as="geometry" />
        </mxCell>
        <mxCell id="osUr1x6TVg4C8QHSbOdu-11" value="Maintain" style="ellipse;whiteSpace=wrap;html=1;" parent="1" vertex="1">
          <mxGeometry x="650" y="210" width="100" height="40" as="geometry" />
        </mxCell>
        <mxCell id="osUr1x6TVg4C8QHSbOdu-12" value="Bug Fixes" style="ellipse;whiteSpace=wrap;html=1;" parent="1" vertex="1">
          <mxGeometry x="530" y="300" width="100" height="40" as="geometry" />
        </mxCell>
        <mxCell id="osUr1x6TVg4C8QHSbOdu-13" value="Software Updates" style="ellipse;whiteSpace=wrap;html=1;" parent="1" vertex="1">
          <mxGeometry x="640" y="340" width="120" height="40" as="geometry" />
        </mxCell>
        <mxCell id="osUr1x6TVg4C8QHSbOdu-14" style="endArrow=block;" parent="1" source="osUr1x6TVg4C8QHSbOdu-1" target="osUr1x6TVg4C8QHSbOdu-3" edge="1">
          <mxGeometry relative="1" as="geometry" />
        </mxCell>
        <mxCell id="osUr1x6TVg4C8QHSbOdu-15" style="endArrow=block;" parent="1" source="osUr1x6TVg4C8QHSbOdu-3" target="osUr1x6TVg4C8QHSbOdu-4" edge="1">
          <mxGeometry relative="1" as="geometry" />
        </mxCell>
        <mxCell id="osUr1x6TVg4C8QHSbOdu-16" style="endArrow=block;" parent="1" source="osUr1x6TVg4C8QHSbOdu-4" target="osUr1x6TVg4C8QHSbOdu-5" edge="1">
          <mxGeometry relative="1" as="geometry" />
        </mxCell>
        <mxCell id="osUr1x6TVg4C8QHSbOdu-17" style="endArrow=block;" parent="1" source="osUr1x6TVg4C8QHSbOdu-4" target="osUr1x6TVg4C8QHSbOdu-6" edge="1">
          <mxGeometry relative="1" as="geometry" />
        </mxCell>
        <mxCell id="osUr1x6TVg4C8QHSbOdu-18" style="endArrow=block;" parent="1" source="osUr1x6TVg4C8QHSbOdu-4" target="osUr1x6TVg4C8QHSbOdu-7" edge="1">
          <mxGeometry relative="1" as="geometry" />
        </mxCell>
        <mxCell id="osUr1x6TVg4C8QHSbOdu-19" style="endArrow=block;" parent="1" source="osUr1x6TVg4C8QHSbOdu-4" target="osUr1x6TVg4C8QHSbOdu-8" edge="1">
          <mxGeometry relative="1" as="geometry" />
        </mxCell>
        <mxCell id="osUr1x6TVg4C8QHSbOdu-20" style="endArrow=block;" parent="1" source="osUr1x6TVg4C8QHSbOdu-4" target="osUr1x6TVg4C8QHSbOdu-9" edge="1">
          <mxGeometry relative="1" as="geometry" />
        </mxCell>
        <mxCell id="osUr1x6TVg4C8QHSbOdu-21" value="&lt;&lt;extend&gt;&gt;" style="endArrow=block;dashed=1;" parent="1" source="osUr1x6TVg4C8QHSbOdu-9" target="osUr1x6TVg4C8QHSbOdu-10" edge="1">
          <mxGeometry relative="1" as="geometry" />
        </mxCell>
        <mxCell id="osUr1x6TVg4C8QHSbOdu-22" style="endArrow=block;" parent="1" source="osUr1x6TVg4C8QHSbOdu-2" target="osUr1x6TVg4C8QHSbOdu-11" edge="1">
          <mxGeometry relative="1" as="geometry" />
        </mxCell>
        <mxCell id="osUr1x6TVg4C8QHSbOdu-23" value="&lt;&lt;include&gt;&gt;" style="endArrow=block;dashed=1;" parent="1" source="osUr1x6TVg4C8QHSbOdu-11" target="osUr1x6TVg4C8QHSbOdu-12" edge="1">
          <mxGeometry relative="1" as="geometry" />
        </mxCell>
        <mxCell id="osUr1x6TVg4C8QHSbOdu-24" value="&lt;&lt;include&gt;&gt;" style="endArrow=block;dashed=1;" parent="1" source="osUr1x6TVg4C8QHSbOdu-11" target="osUr1x6TVg4C8QHSbOdu-13" edge="1">
          <mxGeometry relative="1" as="geometry" />
        </mxCell>
        <mxCell id="osUr1x6TVg4C8QHSbOdu-25" value="Gcash Online Banking App" style="shape=rectangle;whiteSpace=wrap;html=1;fillColor=light-dark(#0050ef, #00ecf0);fontColor=#ffffff;strokeColor=#001DBC;" parent="1" vertex="1">
          <mxGeometry x="330" y="20" width="160" height="40" as="geometry" />
        </mxCell>
      </root>
    </mxGraphModel>
  </diagram>
</mxfile>
